<svg width="62" height="11" viewBox="0 0 62 11" fill="none" xmlns="http://www.w3.org/2000/svg">
<path d="M3.456 1.588C4.696 1.588 5.648 1.808 6.312 2.248C6.976 2.68 7.308 3.392 7.308 4.384C7.308 5.384 6.972 6.108 6.3 6.556C5.628 6.996 4.668 7.216 3.42 7.216H2.832V10H0.96V1.804C1.368 1.724 1.8 1.668 2.256 1.636C2.712 1.604 3.112 1.588 3.456 1.588ZM3.576 3.184C3.44 3.184 3.304 3.188 3.168 3.196C3.04 3.204 2.928 3.212 2.832 3.22V5.62H3.42C4.068 5.62 4.556 5.532 4.884 5.356C5.212 5.18 5.376 4.852 5.376 4.372C5.376 4.14 5.332 3.948 5.244 3.796C5.164 3.644 5.044 3.524 4.884 3.436C4.732 3.34 4.544 3.276 4.32 3.244C4.096 3.204 3.848 3.184 3.576 3.184ZM8.56266 10V0.976L10.3507 0.688V3.712C10.4707 3.672 10.6227 3.636 10.8067 3.604C10.9987 3.564 11.1827 3.544 11.3587 3.544C11.8707 3.544 12.2947 3.616 12.6307 3.76C12.9747 3.896 13.2467 4.092 13.4467 4.348C13.6547 4.604 13.7987 4.908 13.8787 5.26C13.9667 5.612 14.0107 6.004 14.0107 6.436V10H12.2227V6.652C12.2227 6.076 12.1467 5.668 11.9947 5.428C11.8507 5.188 11.5787 5.068 11.1787 5.068C11.0187 5.068 10.8667 5.084 10.7227 5.116C10.5867 5.14 10.4627 5.168 10.3507 5.2V10H8.56266ZM18.0411 8.752C18.2171 8.752 18.3851 8.748 18.5451 8.74C18.7051 8.732 18.8331 8.72 18.9291 8.704V7.348C18.8571 7.332 18.7491 7.316 18.6051 7.3C18.4611 7.284 18.3291 7.276 18.2091 7.276C18.0411 7.276 17.8811 7.288 17.7291 7.312C17.5851 7.328 17.4571 7.364 17.3451 7.42C17.2331 7.476 17.1451 7.552 17.0811 7.648C17.0171 7.744 16.9851 7.864 16.9851 8.008C16.9851 8.288 17.0771 8.484 17.2611 8.596C17.4531 8.7 17.7131 8.752 18.0411 8.752ZM17.8971 3.52C18.4251 3.52 18.8651 3.58 19.2171 3.7C19.5691 3.82 19.8491 3.992 20.0571 4.216C20.2731 4.44 20.4251 4.712 20.5131 5.032C20.6011 5.352 20.6451 5.708 20.6451 6.1V9.82C20.3891 9.876 20.0331 9.94 19.5771 10.012C19.1211 10.092 18.5691 10.132 17.9211 10.132C17.5131 10.132 17.1411 10.096 16.8051 10.024C16.4771 9.952 16.1931 9.836 15.9531 9.676C15.7131 9.508 15.5291 9.292 15.4011 9.028C15.2731 8.764 15.2091 8.44 15.2091 8.056C15.2091 7.688 15.2811 7.376 15.4251 7.12C15.5771 6.864 15.7771 6.66 16.0251 6.508C16.2731 6.356 16.5571 6.248 16.8771 6.184C17.1971 6.112 17.5291 6.076 17.8731 6.076C18.1051 6.076 18.3091 6.088 18.4851 6.112C18.6691 6.128 18.8171 6.152 18.9291 6.184V6.016C18.9291 5.712 18.8371 5.468 18.6531 5.284C18.4691 5.1 18.1491 5.008 17.6931 5.008C17.3891 5.008 17.0891 5.032 16.7931 5.08C16.4971 5.12 16.2411 5.18 16.0251 5.26L15.7971 3.82C15.9011 3.788 16.0291 3.756 16.1811 3.724C16.3411 3.684 16.5131 3.652 16.6971 3.628C16.8811 3.596 17.0731 3.572 17.2731 3.556C17.4811 3.532 17.6891 3.52 17.8971 3.52ZM26.0659 5.272C25.9059 5.232 25.7179 5.192 25.5019 5.152C25.2859 5.104 25.0539 5.08 24.8059 5.08C24.6939 5.08 24.5579 5.092 24.3979 5.116C24.2459 5.132 24.1299 5.152 24.0499 5.176V10H22.2619V4.024C22.5819 3.912 22.9579 3.808 23.3899 3.712C23.8299 3.608 24.3179 3.556 24.8539 3.556C24.9499 3.556 25.0659 3.564 25.2019 3.58C25.3379 3.588 25.4739 3.604 25.6099 3.628C25.7459 3.644 25.8819 3.668 26.0179 3.7C26.1539 3.724 26.2699 3.756 26.3659 3.796L26.0659 5.272ZM30.7924 6.652C30.7924 6.076 30.7164 5.668 30.5644 5.428C30.4204 5.188 30.1684 5.068 29.8084 5.068C29.6964 5.068 29.5804 5.076 29.4604 5.092C29.3404 5.1 29.2244 5.112 29.1124 5.128V10H27.3244V3.904C27.4764 3.864 27.6524 3.824 27.8524 3.784C28.0604 3.736 28.2764 3.696 28.5004 3.664C28.7324 3.624 28.9684 3.596 29.2084 3.58C29.4484 3.556 29.6844 3.544 29.9164 3.544C30.3724 3.544 30.7404 3.604 31.0204 3.724C31.3084 3.836 31.5444 3.972 31.7284 4.132C31.9844 3.948 32.2764 3.804 32.6044 3.7C32.9404 3.596 33.2484 3.544 33.5284 3.544C34.0324 3.544 34.4444 3.616 34.7644 3.76C35.0924 3.896 35.3524 4.092 35.5444 4.348C35.7364 4.604 35.8684 4.908 35.9404 5.26C36.0124 5.612 36.0484 6.004 36.0484 6.436V10H34.2604V6.652C34.2604 6.076 34.1844 5.668 34.0324 5.428C33.8884 5.188 33.6364 5.068 33.2764 5.068C33.1804 5.068 33.0444 5.092 32.8684 5.14C32.7004 5.188 32.5604 5.248 32.4484 5.32C32.5044 5.504 32.5404 5.7 32.5564 5.908C32.5724 6.108 32.5804 6.324 32.5804 6.556V10H30.7924V6.652ZM40.084 8.752C40.26 8.752 40.428 8.748 40.588 8.74C40.748 8.732 40.876 8.72 40.972 8.704V7.348C40.9 7.332 40.792 7.316 40.648 7.3C40.504 7.284 40.372 7.276 40.252 7.276C40.084 7.276 39.924 7.288 39.772 7.312C39.628 7.328 39.5 7.364 39.388 7.42C39.276 7.476 39.188 7.552 39.124 7.648C39.06 7.744 39.028 7.864 39.028 8.008C39.028 8.288 39.12 8.484 39.304 8.596C39.496 8.7 39.756 8.752 40.084 8.752ZM39.94 3.52C40.468 3.52 40.908 3.58 41.26 3.7C41.612 3.82 41.892 3.992 42.1 4.216C42.316 4.44 42.468 4.712 42.556 5.032C42.644 5.352 42.688 5.708 42.688 6.1V9.82C42.432 9.876 42.076 9.94 41.62 10.012C41.164 10.092 40.612 10.132 39.964 10.132C39.556 10.132 39.184 10.096 38.848 10.024C38.52 9.952 38.236 9.836 37.996 9.676C37.756 9.508 37.572 9.292 37.444 9.028C37.316 8.764 37.252 8.44 37.252 8.056C37.252 7.688 37.324 7.376 37.468 7.12C37.62 6.864 37.82 6.66 38.068 6.508C38.316 6.356 38.6 6.248 38.92 6.184C39.24 6.112 39.572 6.076 39.916 6.076C40.148 6.076 40.352 6.088 40.528 6.112C40.712 6.128 40.86 6.152 40.972 6.184V6.016C40.972 5.712 40.88 5.468 40.696 5.284C40.512 5.1 40.192 5.008 39.736 5.008C39.432 5.008 39.132 5.032 38.836 5.08C38.54 5.12 38.284 5.18 38.068 5.26L37.84 3.82C37.944 3.788 38.072 3.756 38.224 3.724C38.384 3.684 38.556 3.652 38.74 3.628C38.924 3.596 39.116 3.572 39.316 3.556C39.524 3.532 39.732 3.52 39.94 3.52Z" fill="#1267FC"/>
<path d="M47.4277 1.684H48.2437V10H47.4277V1.684ZM50.3562 4.012C50.5882 3.948 50.9002 3.876 51.2922 3.796C51.6842 3.716 52.1642 3.676 52.7322 3.676C53.2042 3.676 53.5962 3.744 53.9082 3.88C54.2282 4.016 54.4802 4.212 54.6642 4.468C54.8562 4.716 54.9922 5.016 55.0722 5.368C55.1522 5.72 55.1922 6.108 55.1922 6.532V10H54.4122V6.784C54.4122 6.344 54.3802 5.972 54.3162 5.668C54.2602 5.364 54.1602 5.116 54.0162 4.924C53.8802 4.732 53.6962 4.596 53.4642 4.516C53.2402 4.428 52.9562 4.384 52.6122 4.384C52.2442 4.384 51.9242 4.404 51.6522 4.444C51.3882 4.484 51.2162 4.52 51.1362 4.552V10H50.3562V4.012ZM59.7563 10.132C59.2763 10.132 58.8523 10.056 58.4843 9.904C58.1163 9.752 57.8083 9.536 57.5603 9.256C57.3203 8.968 57.1363 8.628 57.0083 8.236C56.8803 7.836 56.8163 7.396 56.8163 6.916C56.8163 6.428 56.8803 5.984 57.0083 5.584C57.1443 5.184 57.3363 4.84 57.5843 4.552C57.8323 4.264 58.1323 4.044 58.4843 3.892C58.8363 3.732 59.2323 3.652 59.6723 3.652C60.0083 3.652 60.3203 3.68 60.6083 3.736C60.9043 3.792 61.1323 3.864 61.2923 3.952L61.0883 4.624C60.9283 4.544 60.7483 4.48 60.5483 4.432C60.3483 4.384 60.0803 4.36 59.7443 4.36C59.0563 4.36 58.5323 4.584 58.1723 5.032C57.8203 5.472 57.6443 6.1 57.6443 6.916C57.6443 7.284 57.6843 7.624 57.7643 7.936C57.8443 8.24 57.9723 8.504 58.1483 8.728C58.3323 8.944 58.5643 9.116 58.8443 9.244C59.1323 9.364 59.4803 9.424 59.8883 9.424C60.2243 9.424 60.5043 9.388 60.7283 9.316C60.9603 9.236 61.1283 9.168 61.2323 9.112L61.4003 9.784C61.2563 9.864 61.0283 9.94 60.7163 10.012C60.4123 10.092 60.0923 10.132 59.7563 10.132Z" fill="white" fill-opacity="0.64"/>
</svg>
